<?xml version="1.0" encoding="utf-8"?>
<!-- Generator: Adobe Illustrator 24.3.0, SVG Export Plug-In . SVG Version: 6.00 Build 0)  -->
<svg version="1.1" id="Layer_1" xmlns="http://www.w3.org/2000/svg" xmlns:xlink="http://www.w3.org/1999/xlink" x="0px" y="0px"
	 viewBox="0 0 864 864" style="enable-background:new 0 0 864 864;" xml:space="preserve">
<path d="M144.6,275.1C144.5,275.1,144.5,275.2,144.6,275.1C144.4,275.5,144.5,275.3,144.6,275.1z M85.5,381.1
	C85.5,381.1,85.5,381.1,85.5,381.1C85.5,381.1,85.5,381.1,85.5,381.1z M673.1,160.4C673,160.4,673,160.4,673.1,160.4
	C673,160.4,673.1,160.4,673.1,160.4z M292.5,679.9c0,0,0.1,0,0.1,0C292.5,679.9,292.5,679.9,292.5,679.9z M101.3,271.1
	C101.3,271.1,101.2,271.2,101.3,271.1L101.3,271.1C101.2,271.2,101.3,271.1,101.3,271.1z M103.5,272.3
	C103.4,272.3,103.4,272.3,103.5,272.3C103.5,272.3,103.5,272.3,103.5,272.3z M104,272.4c0.5,0.1,0.9,0.1,1.2,0.2
	C104.9,272.5,104.4,272.5,104,272.4z M102.8,271.1c-0.1,0-0.2,0-0.3,0C102.6,271,102.7,271.1,102.8,271.1z M102,271
	c0.2,0,0.3,0,0.5,0C102.4,271,102.2,271,102,271z M103.2,271.1c-0.1,0-0.2,0-0.4-0.1C103,271.1,103.1,271.1,103.2,271.1z
	 M103.2,271.1c0.3,0.1,0.5,0.1,0.5,0.1C103.6,271.2,103.4,271.2,103.2,271.1z M102.8,271.1C102.8,271.1,102.8,271.1,102.8,271.1
	C102.8,271.1,102.8,271.1,102.8,271.1z M103.7,271.3C103.7,271.3,103.7,271.3,103.7,271.3C103.8,271.3,103.8,271.3,103.7,271.3z
	 M80.5,288.5c-0.1,0-0.2-0.1-0.2-0.1C80.4,288.4,80.4,288.4,80.5,288.5z M80.2,288.2C80.2,288.2,80.2,288.2,80.2,288.2
	C80.2,288.1,80.2,288.1,80.2,288.2z M80.3,288.3C80.3,288.3,80.3,288.3,80.3,288.3C80.3,288.3,80.3,288.3,80.3,288.3z M80.2,288.2
	c0,0.1,0.1,0.1,0.1,0.2C80.2,288.3,80.2,288.2,80.2,288.2z M83.5,287.6c0,0,0-0.1,0-0.1C83.5,287.5,83.6,287.5,83.5,287.6z
	 M83.5,287.7c-0.1,0.2-0.4,0.4-0.8,0.6C83,288.1,83.3,287.9,83.5,287.7z M147.6,118.1c0.2,0.1,0.3,0.2,0.5,0.2L147.6,118.1z
	 M147.5,118c-0.1-0.1-0.3-0.3-0.4-0.5C147.2,117.6,147.3,117.8,147.5,118z M147.1,117.3C147,117.2,147,117.2,147.1,117.3
	L147.1,117.3z M147.1,117.4C147.1,117.4,147.1,117.4,147.1,117.4C147.1,117.4,147.1,117.4,147.1,117.4
	C147.1,117.4,147.1,117.4,147.1,117.4z M147.1,117.4c0,0,0,0.1,0.1,0.1C147.1,117.4,147.1,117.4,147.1,117.4z M160.3,131.5
	C160.3,131.5,160.3,131.5,160.3,131.5C160.2,131.5,160.2,131.6,160.3,131.5z M153.2,242.8c-2.5-1.8-5.7,2.7-3.2,4.5
	C152.5,249.2,155.7,244.6,153.2,242.8z M148.1,118.3c0.1,0,0.2,0,0.3,0C148.4,118.3,148.2,118.3,148.1,118.3z M148.7,118.1
	c-0.1,0.1-0.2,0.1-0.3,0.2C148.6,118.2,148.7,118.2,148.7,118.1z M187.3,165.6c0-0.1,0.1-0.2,0.1-0.3
	C187.4,165.4,187.3,165.4,187.3,165.6z M148.8,116.6c0,0.1,0,0.1,0.1,0.2C148.8,116.7,148.8,116.5,148.8,116.6z M146.9,116.9
	c0-0.3,0-0.5,0.1-0.7C146.9,116.4,146.9,116.6,146.9,116.9z M87,650.7c0.1,0.1,0.1,0.1,0.2,0.2C87.3,650.9,87.1,650.7,87,650.7z
	 M174.1,610.2c0-0.1,0-0.2-0.1-0.3C174,609.9,174,610.1,174.1,610.2z M159.6,624.5c-0.1-0.1-0.4-0.2-0.1-0.1
	C159.5,624.5,159.6,624.5,159.6,624.5z M78.2,632.9c0.3-0.2,0,0-0.1,0C78.2,632.9,78.2,632.9,78.2,632.9z M80.7,622.6
	c0,0-0.1,0-0.1,0C80.8,622.5,81,622.5,80.7,622.6z M80.6,622.6c0,0-0.1,0-0.1,0C80.6,622.6,80.6,622.6,80.6,622.6z M58.2,534.7
	c-0.1,0-0.2-0.1-0.3-0.1C58,534.7,58.2,534.7,58.2,534.7z M38.7,413.3c0,0,0,0.1,0,0.1C38.7,413.4,38.7,413.4,38.7,413.3z
	 M33.9,414.2C34.5,414.3,34,414.2,33.9,414.2C33.9,414.1,33.9,414.2,33.9,414.2z M62,205.3C62,205.3,62,205.3,62,205.3
	C62,205.3,62,205.3,62,205.3z M61.7,205.6c0.1-0.1,0.2-0.2,0.3-0.3C61.8,205.4,61.7,205.5,61.7,205.6z M64.7,204.2
	c-0.8-0.1-1.9,0.5-2.7,1.1C62.8,204.7,63.9,204.1,64.7,204.2z M782.1,425.5c4.3,6.4,13.4-0.6,7.9-6.2
	C785.5,414.8,778.5,420.1,782.1,425.5z M792.7,377.7C792.7,377.7,792.7,377.7,792.7,377.7C792.7,377.7,792.7,377.7,792.7,377.7
	C792.7,377.7,792.7,377.7,792.7,377.7z M474,86.5c0.2,0.2,0.4,0.3,0.6,0.5C474.5,86.8,474.3,86.6,474,86.5z M474,86.5
	c-0.2-0.2-0.4-0.3-0.7-0.4C473.6,86.2,473.8,86.3,474,86.5z M439.8,78C439.8,78,439.8,78,439.8,78L439.8,78z M439.7,78
	C439.8,78,439.7,78,439.7,78C439.8,78,439.8,78,439.7,78C439.7,78,439.7,78,439.7,78z M439,77.7c0.2,0.4,0.7,0.4,0.8,0.4
	C444.7,76.8,434.6,69.3,439,77.7z M303.5,79.9c0.1,0.2,0.1,0.4,0.1,0.6C303.7,80.4,303.6,79.9,303.5,79.9z M292.3,87.6
	c0.8,0,1.7,0,2.6-0.2C294,87.6,293.1,87.7,292.3,87.6z M303.2,82.4l-1.5,1.8C302.3,83.6,302.8,83,303.2,82.4z M251.9,89.2
	c0,0.1,0,0.1,0.1,0.2C252,89.5,251.9,89.3,251.9,89.2z M277.2,79.1c-0.4,0-0.1,0,0.2,0C277.3,79.2,277.2,79.1,277.2,79.1z
	 M377.9,58.9c0-0.2,0-0.3-0.1-0.5C377.9,58.7,377.9,59,377.9,58.9z M594.3,78.5c2.4-0.1,2.6-5.1,0.3-4.8
	C596.8,73.4,596.6,78.3,594.3,78.5z M642.5,147.4C642.2,147.2,642.2,147.2,642.5,147.4L642.5,147.4z M642.6,147.5
	c-0.1,0-0.1-0.1-0.2-0.1C642.5,147.4,642.6,147.4,642.6,147.5C642.6,147.5,642.6,147.5,642.6,147.5z M641,145.9l-0.3-0.7
	C640.7,145.4,640.8,145.6,641,145.9z M642,147l-1-1.2C641.2,146.3,641.6,146.7,642,147z M640.8,144.4
	C640.8,144.4,640.8,144.4,640.8,144.4C640.8,144.4,640.8,144.4,640.8,144.4C640.8,144.4,640.8,144.4,640.8,144.4
	c-0.1,0.2-0.1,0.4-0.1,0.6C640.6,144.7,640.7,144.5,640.8,144.4z M642.2,143.8c0.4,0,0.9,0.1,1.4,0.4
	C643.1,144,642.6,143.9,642.2,143.8z M643.9,144.4c0,0,0.1,0,0.1,0.1C644,144.4,644,144.4,643.9,144.4z M645.8,148
	c1.3-0.7,0.1-2.5-1.5-3.4C645.9,145.6,647.1,147.3,645.8,148z M644.3,144.6C644.3,144.6,644.3,144.6,644.3,144.6
	C644.3,144.6,644.3,144.6,644.3,144.6z M644,144.4c0.1,0,0.2,0.1,0.2,0.1C644.2,144.5,644.1,144.5,644,144.4z M643.6,144.2
	c0.1,0,0.2,0.1,0.4,0.2C643.8,144.3,643.7,144.2,643.6,144.2z M641,144.1c0.3-0.2,0.7-0.3,1.2-0.3
	C641.7,143.8,641.3,143.9,641,144.1z M640.8,144.3c0.1-0.1,0.1-0.2,0.2-0.2C640.9,144.2,640.8,144.3,640.8,144.3z M551.8,142.9
	c-2.2,0-1.8,5,0.7,4.6C554.7,147.5,554.3,142.5,551.8,142.9z M543.9,87.3c-0.1,0.1,0,0,0.1,0C544,87.3,544,87.3,543.9,87.3z
	 M579,133.7c-0.1,0-0.1,0-0.2,0C578.9,133.7,578.9,133.7,579,133.7z M577.9,134c0.2-0.1,0.5-0.2,0.8-0.3
	C578.2,133.8,577.8,134,577.9,134z M578.7,133.7c0.1,0,0.1,0,0.2,0C578.8,133.7,578.7,133.7,578.7,133.7z M579.2,133.7
	c0.1,0,0.2,0,0.3,0C579.4,133.7,579.3,133.6,579.2,133.7z M579,133.7c0.1,0,0.1,0,0.2,0C579.1,133.7,579.1,133.7,579,133.7z
	 M580.8,134.7c-0.1-0.4-0.4-0.8-0.9-0.9C580.4,133.9,580.7,134.3,580.8,134.7z M580.8,135c0-0.1,0-0.1,0-0.2
	C580.8,134.9,580.8,134.9,580.8,135z M580.8,134.7C580.8,134.7,580.8,134.8,580.8,134.7C580.8,134.8,580.8,134.7,580.8,134.7z
	 M579.5,133.7c0.1,0,0.3,0.1,0.4,0.1C579.8,133.7,579.7,133.7,579.5,133.7z M580.8,135.2c0,0.1,0,0.1,0,0.2
	C580.8,135.3,580.8,135.2,580.8,135.2z M580.8,135c0,0.1,0,0.1,0,0.2C580.8,135.1,580.8,135,580.8,135z M580.8,135.5
	c0,0.1-0.1,0.3-0.2,0.4C580.7,135.8,580.7,135.7,580.8,135.5z M580.8,135.3c0,0.1,0,0.1,0,0.2C580.8,135.5,580.8,135.4,580.8,135.3z
	 M576.7,135.4l1.2-1.4C577.3,134.4,576.9,134.9,576.7,135.4z M566.9,116.4c3.3,0.2,5.6-6.2,3.9-6.2
	C568.2,108.2,563.1,116.2,566.9,116.4z M572.8,136.5c0,0,0.1-0.1,0.1-0.1C572.9,136.3,572.9,136.4,572.8,136.5z M511.6,669.8
	c-0.1-0.1-0.5-0.4-0.2-0.1C511.5,669.7,511.6,669.7,511.6,669.8z M771.4,482C771.4,482.1,771.4,482.2,771.4,482
	C771.4,482.1,771.4,482.1,771.4,482z M767.3,469.6c0.2,0,0.3,0,0.4,0.1C767.7,469.7,767.7,469.6,767.3,469.6z M709.2,356.4
	c0.1,0,0.2,0.1,0.3,0.1C709.4,356.5,709.4,356.5,709.2,356.4z M614.2,610c0-0.1,0-0.1,0.1-0.2C614.2,610,614.2,610,614.2,610z
	 M737.8,533.9C737.9,534,737.9,533.9,737.8,533.9C737.8,533.9,737.8,533.9,737.8,533.9z M731.7,533c0.1,0,0.1,0.1,0.2,0.2
	C731.8,533,731.9,533.1,731.7,533z M462.6,737.3c0,0-0.1,0.1-0.1,0.1C462.5,737.4,462.5,737.4,462.6,737.3
	C462.6,737.3,462.6,737.3,462.6,737.3z M457.2,691.3C457.3,691.3,457.3,691.3,457.2,691.3C457.2,691.3,457.2,691.3,457.2,691.3z
	 M473.4,697.8c0,0.1-0.1,0.1-0.1,0.2C473.3,698.1,473.4,697.9,473.4,697.8z M295.1,673.8c-0.1,0-0.1,0-0.2,0.1
	C295.1,673.8,295,673.9,295.1,673.8z M102.6,584.2C102.6,584.2,102.6,584.1,102.6,584.2C102.6,584.1,102.6,584.2,102.6,584.2z
	 M102.1,584.2c0.1,0,0.2,0,0.4-0.1C102.4,584.2,102.3,584.2,102.1,584.2z M103,584C103,584,103,584,103,584C103,584,103,584,103,584
	z M103,584c0.1,0,0.2-0.1,0.3-0.2C103.3,583.9,103.2,584,103,584z M103.7,583.6c-0.1,0.1-0.2,0.2-0.3,0.2
	C103.5,583.8,103.6,583.7,103.7,583.6z M103,584c-0.1,0-0.2,0.1-0.4,0.1C102.7,584.1,102.9,584.1,103,584z M103.4,583.8
	C103.4,583.8,103.4,583.8,103.4,583.8C103.4,583.8,103.4,583.8,103.4,583.8z M99.9,583.2C99.9,583.3,99.9,583.4,99.9,583.2
	L99.9,583.2z M99.9,583.1C99.9,583.1,99.9,583.1,99.9,583.1C99.9,583.1,99.9,583.1,99.9,583.1z M99.9,583.1c0-0.1,0-0.2,0-0.3
	C99.9,582.9,99.9,583,99.9,583.1z M99.9,582.8c0-0.1,0-0.1,0.1-0.2C100,582.7,100,582.8,99.9,582.8z M99.9,583.2
	C99.9,583.2,99.9,583.2,99.9,583.2C99.9,583.2,99.9,583.1,99.9,583.2C99.9,583.1,99.9,583.2,99.9,583.2z M101.3,584.2
	C101.3,584.2,101.3,584.2,101.3,584.2C101.3,584.2,101.3,584.2,101.3,584.2z M101.3,584.2c0.5,0.1,0.9,0,0.8,0c0,0,0,0,0,0
	c0,0,0,0,0,0c0,0,0,0,0,0c0,0,0,0-0.1,0C101.8,584.3,101.6,584.2,101.3,584.2z M101.2,584.2c-0.2,0-0.5-0.1-0.7-0.2
	C100.8,584.1,101,584.2,101.2,584.2z M102.3,581.7c-0.1,0-0.3,0-0.4,0C102,581.7,102,581.7,102.3,581.7z M165,624.8
	C165,624.8,164.9,624.8,165,624.8C165,624.8,165,624.8,165,624.8z M187.5,642.1c-0.1,0.1-0.2,0.2-0.4,0.4
	C187.2,642.4,187.4,642.2,187.5,642.1z M187.6,641.9c-0.1,0.1-0.1,0.1-0.1,0.2C187.7,641.9,187.7,641.9,187.6,641.9z M450.9,704.8
	c0,0,0-0.1,0-0.1C450.9,704.6,450.9,704.7,450.9,704.8z M369.2,710.4c-0.1,0.1-0.2,0.1-0.3,0.2C369.1,710.6,369.1,710.5,369.2,710.4
	z M369.3,710.3c0,0-0.1,0.1-0.1,0.1C369.3,710.3,369.4,710.3,369.3,710.3z M457.2,735.9c0,0-0.1-0.1-0.1-0.1
	C457.1,735.8,457.1,735.8,457.2,735.9C457.2,735.9,457.2,735.9,457.2,735.9z M218.4,674.6C218.5,674.5,218.4,674.5,218.4,674.6
	C218.3,674.6,218.4,674.6,218.4,674.6z M216.8,661C216.9,661,217,661,216.8,661C216.8,661,216.8,661,216.8,661z M186.2,645.8
	c0.9,0.9,3.1-1,4.3-2.5C189.4,644.7,187.1,646.7,186.2,645.8z M191.1,639.9c0.1,0,0.2,0.1,0.3,0.1
	C191.5,640.1,191.2,639.9,191.1,639.9z M362.4,708c-0.2-0.1-0.4-0.2-0.6-0.3C362,707.8,362.2,707.9,362.4,708z M361.8,707.8
	c-0.1,0-0.1,0-0.2-0.1C361.7,707.7,361.8,707.7,361.8,707.8z M361.6,707.7c-0.6-0.2-1.2-0.4-1.8-0.4
	C360.4,707.3,361,707.5,361.6,707.7z M368.7,710.8c-0.5,0.3-0.9,0.6-1.3,0.7C367.8,711.4,368.3,711.2,368.7,710.8z M217.4,662.3
	c0.1-0.2,0.1-0.3,0-0.5C217.5,662,217.4,662.1,217.4,662.3z M341.7,699.4C341.7,699.4,341.7,699.4,341.7,699.4
	C341.7,699.5,341.7,699.5,341.7,699.4z M341.9,699.2c0,0.1-0.1,0.2-0.2,0.2C341.8,699.3,341.8,699.3,341.9,699.2z M222.7,125.5
	c0.1,0,0.2,0.1,0.3,0.1C222.9,125.5,222.7,125.5,222.7,125.5z M222.7,125.5C222.6,125.5,222.6,125.5,222.7,125.5
	C222.7,125.5,222.7,125.5,222.7,125.5z M256.4,114.4C256.4,114.4,256.4,114.4,256.4,114.4C256.4,114.4,256.4,114.4,256.4,114.4
	C256.4,114.4,256.4,114.4,256.4,114.4z M332.6,92.2c0-0.1-0.1-0.1-0.1-0.2C332.5,92.1,332.5,92.2,332.6,92.2
	C332.6,92.2,332.6,92.2,332.6,92.2z M227.9,126.8c-0.1,0.1-0.3,0.4-0.1,0.2C227.9,126.9,227.9,126.9,227.9,126.8z M687.4,162.8
	C687.4,162.8,687.4,162.8,687.4,162.8C687.4,162.9,687.3,162.9,687.4,162.8z M669,153.5c0.2-0.3,0.3-0.5,0.2-0.4
	C669.1,153.2,669,153.4,669,153.5z M637,178.5C636.9,178.6,637,178.6,637,178.5C637,178.5,637,178.5,637,178.5z M404.3,89.6
	c0.1,0,0.1-0.1,0.2-0.1C404.4,89.5,404.5,89.5,404.3,89.6z M170.7,563C170.7,563,170.7,563,170.7,563
	C170.7,563,170.7,563.1,170.7,563z M102.9,297.8c0,0,0.1,0,0.1,0C102.9,297.8,103,297.8,102.9,297.8z M816.9,506.4
	C816.9,506.5,816.9,506.5,816.9,506.4C816.9,506.5,816.9,506.5,816.9,506.4z M816.9,506.4c0,0,0.1-0.1,0.1-0.1
	C817,506.3,816.9,506.4,816.9,506.4z M818.1,506.5c0.2,0.1,0.3,0.2,0.4,0.3C818.6,506.8,818.2,506.5,818.1,506.5z M799.9,514.7
	C799.8,514.8,799.8,514.8,799.9,514.7L799.9,514.7z M799.9,514.4C799.9,514.4,799.9,514.4,799.9,514.4
	C799.9,514.4,799.9,514.4,799.9,514.4z M799.9,514.7C799.9,514.7,799.9,514.6,799.9,514.7C799.9,514.6,799.9,514.6,799.9,514.7
	c0-0.1,0-0.2,0-0.2C799.9,514.5,799.9,514.6,799.9,514.7z M797,513.6C797,513.6,797,513.7,797,513.6c0-0.1,0.1-0.2,0.2-0.2
	C797.1,513.4,797,513.5,797,513.6z M797,513.7C796.9,513.9,797,514,797,513.7L797,513.7z M335.3,109c0.5,2.2,0.7,3.5,0.9,4.1
	C335.9,112.4,335.8,111.2,335.3,109z M337,113.6c-0.4,0.1-0.6,0-0.8-0.3C336.4,113.6,336.7,113.6,337,113.6z M336.2,113.1
	C336.2,113.1,336.2,113.1,336.2,113.1C336.2,113.1,336.2,113.1,336.2,113.1z M336.3,113.2c0,0,0-0.1-0.1-0.1
	C336.2,113.2,336.2,113.2,336.3,113.2z M94.4,404.3c-0.1,0.1,0,0-0.1,0.2C94.3,404.4,94.4,404.4,94.4,404.3z M223,178
	C223,178.1,223,178.1,223,178C223,178,222.9,177.9,223,178z M642,589c0.8,0.4,1.3,1,1.5,1.4C643.4,589.9,642.8,589.4,642,589z
	 M610.2,669.2c-0.4-0.8-6.4,0.6-6.4,6.8c0,2.3,1,4.7,3.1,5.6C613.9,684.8,617.7,670.6,610.2,669.2z M639.8,588.6
	C639.8,588.6,639.8,588.6,639.8,588.6C639.9,588.6,639.9,588.6,639.8,588.6z M639.8,588.9c0-0.1,0-0.2,0-0.3
	C639.8,588.7,639.8,588.8,639.8,588.9z M643.2,590.8c0,0,0.1,0,0.1,0C643.3,590.8,643.2,590.8,643.2,590.8z M643.5,590.7
	C643.5,590.7,643.4,590.7,643.5,590.7C643.5,590.7,643.6,590.7,643.5,590.7z M643.4,590.8C643.4,590.8,643.3,590.8,643.4,590.8
	C643.3,590.8,643.4,590.8,643.4,590.8z M538.2,692.5c-0.3,0.4,0,0,0.1-0.1C538.3,692.4,538.3,692.4,538.2,692.5z M432,62.2
	c1.1,0.7,5.2,0,6.1-1.3c1.7-2.7-2.9-4.5-7.1-7.2c-0.5-0.3-8.3-1.7-7.4,2.3C423.9,57.2,424.3,57.2,432,62.2z M425.5,71.9
	c5.6-1,10.4,1.2,7.5-1.6c-1.6-1.6-4.1,0.2-3-1.9c1.9-3.6,3.2-6.7-0.5-5.1c-4.6,2-7.4-1.2-7.7,1.2C421.5,67.7,422.8,72.4,425.5,71.9z
	 M437.6,66.5c-0.7,3.6,4,3.3,3.5-0.2C440.9,63.9,438.1,64.1,437.6,66.5z M377.7,71.3c0.3-1.5-1.1-1.6-0.8-3.9
	c-2.1-1.5-3.5-2.9-5-0.8c-1.8,2.6-2,4.9-0.5,7C375,74.2,376.9,75.2,377.7,71.3z M325.7,80.9c2.9-1.2,3.4-5,2.1-5.9
	c-3-2.1-0.2-5-1.9-5.9c-1.8-0.9-7.4,5.1-8.7,6.9C316,77.5,321.5,82.7,325.7,80.9z M516.9,74.5c2-1,1.6-2.4,3-3
	c2.4-1,3.5,1.4,3.8,4.4c0.2,1.9,4.1,3.6,2.1,8c0.1,0.1,0.3,5.4,6.5,4.1c1.1-0.2,4.6-6.9,3.6-8.3c-1.2-1.7-10.7-2.8-11.3-5.1
	c-0.7-2.6-0.8-3.4-1.9-3.8c-1.2-0.4-5-1.5-5.5,0.1C516.3,73.7,515.6,75.2,516.9,74.5z M514.7,86.5c6.3-7.7,5.9-7.1,5.9-7.3
	c0.1-0.3-0.1-0.5-0.2-0.5c-0.2-0.2-10.1-2.1-10.2-2.1c-1.2,0-0.1,8,0,8.1C514.2,86.8,514.3,87,514.7,86.5z M520.4,78.7
	C520.4,78.7,520.4,78.7,520.4,78.7C520.4,78.7,520.4,78.7,520.4,78.7z M254.7,102.4c2.1,0.6,5.8,8.1,13.4,0.2
	c2.8-2.9-0.7-3.7-1.5-5.3c-2.5-4.9-4.7-4.8-4.7-6.5c0-1,0.5-4,1.3-2.7c0.3,0.5,1.4,9.5,10.4,5.6c3.4-1.5,1-5.4-1.2-11.5
	c-0.5-1.4-1.3-0.2-3-0.2c-1.1,0-0.6-1.1,0.1-1.9c0.7-0.8-0.1-1.9-1.5-1.2c-0.1,0.1-5,2.7-4.9,4.2c0.1,5.1-3.8,1.3-5.1,7.7
	c2.8,8.2-6.6,12-0.9,0.8c-2.8,0.9-3.5,0.9-3.8,2C252.7,96.5,250.3,101.3,254.7,102.4z M301.9,94.8c-1.1-0.8-0.5-1.7,0.1-4
	c0.3-1.2-0.9-2.1-2-1.5c-7.4,4.3-10.9,5.3-9.3,8.3C294.2,104.2,307.6,98.7,301.9,94.8z M531.2,96.9c3.8,5.2,7.3,4.4,8.1,6.4
	c1.9,5.2,5.8,4.4,5.9,6.3c0.2,3.2-1.7,4.9,0.9,4.4c1.6-0.3,0.3-1.7,0.9-4.7c0.4-2.1,4.4,1.7,6-3.4c0.5-1.6-1.3-1.7-2.8-1.3
	c-3.8,1-1.3-3.8,0.4-6c0.5-0.6,0.2-1.6-0.6-1.8c-6.2-1.4-7.4,1.8-8.1-0.1c-1-2.4-2.3-2.1-2.9-3.8C535.9,83.5,530.1,95.3,531.2,96.9z
	 M471,109.7c1-2.9,6,1.4,5.8-0.9c-0.1-0.9-3.5-2.4-2.7-6.2c0.3-1.3-4.6-1-5.4,3.2c-0.2,1.2-1,1.1-4.1,1.7
	C461.1,108.2,466.5,122.7,471,109.7z M660.8,120.2c1.7,0.9,2.6-1.8,6.2-0.8c6.4,1.9,1.6-5.9-2.5-11.2c-1-1.3-1.7,0.9-4.7,3.1
	C656.5,113.7,657.2,118.4,660.8,120.2z M524.1,108.8c-3.8-1.9-6.4,4.2-4.4,4.7c2.1,0.5,2.4-0.7,3.8-0.6
	C526.6,113.2,527.2,110.4,524.1,108.8z M226.2,114.2c0,0.8-0.5,1.1-2.4,2.9c1.2,1.6,4.5,0.9,5.9,0.4c1.5-1.4,3.1-4.2,1.7-5.4
	c-2.6-2.2-6.2-3.9-8.4,0.1C223.5,113.6,226.2,112,226.2,114.2z M549,116.3c-0.2-1.6-1-0.7-1.9,0.3c-1.4,1.4,0.4,3.6-2.3,5.9
	c-2.2,1.8-1.2,7.8-4.1,11.1c-1.2,1.4-1.2,7.2,6.3,5c5.1-1.4,6.1-0.5,6.3-2c0.3-2-1.4-2.4-0.6-3.6c1.5-2.8,5.7-1.5,6.5-7.6
	c0.2-1.1-0.2-1.3-2.1-3.5c-0.9-1.1,0.2-1.7-0.3-3.9C556.1,115.1,549.7,122.8,549,116.3z M163.7,120.8c-1-2.3-3.3-3.4-6.7-3.3
	C151.3,117.6,157.6,136.4,163.7,120.8z M574.1,122.6c1.8,0.5,3.2-2.6,1.8-4C573.9,116.6,571.4,121.9,574.1,122.6z M196.4,141.1
	c2.7-0.7,2.5-0.3,2.8,0.3c7.9,18.4,14.9-2.2,9.2-3c-2.9-0.4-0.3,4.7-2.6,4.1c-1.2-0.3-0.1-3.9-3.2-9.5c-0.5-0.9-0.3-1.2,0.3-3.8
	c0.3-1.3-1.2-2.4-2.3-1.7c-8.7,5.2-10.1,5.4-9.3,7.4C191.3,135.1,195,141.5,196.4,141.1z M593.9,145.3c1-0.2,0.7-0.4,2-11.3
	c0.1-0.7-0.7-1.3-1.4-0.9c-13.1,7.2-11.3,4.3-7.8,12.8C587.1,146.9,587.5,146.6,593.9,145.3z M153.7,155.3c5.4,0.3,9.7-1.5,12.9-5.5
	c1.1-4.5,1.3-7.4,0.8-8.9c-1.8-5.1-4.4-6.8-7.8-5c4.5,6.9,4.7,5.5-0.3,7.7c-2.3,1,0.1-4.4-3.4-7.7c-1.8-1.7-7.6,2.2-10.1,6.5
	c-0.3,0.5-0.4,1,0.6,2c2.2,2.2,2-2.1,6-5.1c2.6-2,0.6,3.5-2.2,6c-1.4,1.2-0.7,4.3-4.1,3.7C143.6,148.5,148,154.9,153.7,155.3z
	 M189.9,156.5c0.8-1-0.1-1.6-1.1-2.8c-1-1.1,0.8-2.6,3-1.5c1,0.5,1.9-0.8,0.7-2c-1.1-1.2-2.4-0.6-7.1,0.4
	C180.8,151.4,188.3,158.4,189.9,156.5z M645.7,168.2c1.4,6.3,0,8.8-1.4,18.3c5.2,0.4,5.9,3,7.9,3.1c11.3,0.4,11,2.3-0.9-7.3
	c-2.5-2,0.6-3.8,3-7.8c1-1.7,2.3-2.3,3.7-1.9l6.3-3.7c-1.7-2.9-4.3-2.5-3-5.2c1.5-3,3.4-5.9,1.7-8.8c-0.9-1.6-6.9-2-8.9,1.6
	c-0.1,3.9,2.3,5.6-1.1,6.2C650.4,163.2,645,165.1,645.7,168.2z M206.2,175.4c1.1,4.2,8.6,6.8,9.4,4.3c0.9-2.6,3.1-8.2-2.2-8.3
	c-0.5,0-0.9,0-1.2,0.3C211.3,172.7,205,171.2,206.2,175.4z M138.2,188.3c0.9-0.6-0.5-0.5-1.2-0.3c-1.2,0.4-2.6-0.5-3.7,1.7
	c-0.5,0.9-0.8,2.1-0.1,2.8C135,194.3,135.2,190.5,138.2,188.3z M667.2,188.5c-5.9,1.6-3.1,9.3,2.1,5.9
	C672.8,192,671.2,187.4,667.2,188.5z M137.4,206.1c4.4,1.9,3.9-3.5,6.3-5.7c1.7-1.6,6.1-6.2,3.9-7.6c-4.3-2.6-4.2-5.9-5.7-4
	c-5,6.1-8.5,6.1-10.1,7.9C128.6,200.2,132.4,203.9,137.4,206.1z M160.6,193.9c-2.3-0.8-2.3,3.1-2.5,5.3c-0.2,1.6,3.1,1.9,4.9-0.1
	c1-1.2,2.9,0.5,3.1,2.2c0.7,5.5,5.8,0.5,5.1-3.5C170.8,195.5,164.4,200,160.6,193.9z M164.4,214.2c0.6-8.1-8.8-12.4-9.7-9.3
	c-4.9,16.9-8.3,8.7-9.5,12.1c-0.3,0.8,0.4,2.3-0.1,7.1c0,0.1,0,0.1,0.5,0.2c1.2,0.2,0.7-4.4,5.1-2.9
	C155.7,223.1,163.9,220.5,164.4,214.2z M67.7,215.1c0.5,1.1-3,3.8-0.4,4.5c1.7,0.5,4.7-2.6,5.9-3.8c2.6-2.8,0.8-5.5-0.4-8.1
	c-1.7-3.5-3.2-1-9.9,5.4C60.5,215.3,67.3,214.3,67.7,215.1z M142.8,233.2c-2.2,0.9,0,6,2.2,5.1C147.1,237.3,145,232.2,142.8,233.2z
	 M80.2,247.5c1.8-2.1-0.2-5.7,2.2-8.8c0-3.2-0.7-1.9-6.8,1.7C73.3,241.8,73.8,245.8,80.2,247.5z M129.2,244.3
	c0.9-0.1,0.6-0.8,0.2-5.1c-0.1-1.2-3.5-0.9-3.2,2.8C126.3,243.3,127.4,244.5,129.2,244.3z M707.4,247.5c-3-3-4.2-2.5-4.6-4
	c-0.8-2.8,2.2-3.1,1.2-4.6c-0.6-0.9-2.5-1.1-2.9,0.8c-0.3,1.6-0.4,4.6,1,5.6C704.1,246.9,709.1,249.2,707.4,247.5z M88.8,254
	c4,0.3,6.6,1.1,8.8-1.9c7.2-9.8,0.3-11.8,1-10.2c0.7,1.8-0.9,5.5-3.7,2.7c-1.9-2-1.9-3.8-2.3-4.3c-2.3-3.2-4.9,9.5-5.5,10.9
	C86.4,252.9,86.9,253.9,88.8,254z M715.3,252.4c-1-2.8-6.3-2.9-4.6-1.1c1,1.1,2.1,2,0.7,2.4c-1.4,0.4-2.6,0.6-1.7,1.5
	C711.6,257.1,716.4,255.6,715.3,252.4z M706.4,255.2c1.2-1.4-1.2-3.4-3.3-3.4c-1.4,0,0,0.9,1.4,2.1c0.8,0.7-0.3,1.6-1.2,2.8
	C701.9,258.5,705.1,256.7,706.4,255.2z M136.8,252.6c-1.6,0.3-1.3,2.4,0.4,2C138.8,254.3,138.4,252.2,136.8,252.6z M98.8,266.1
	c1.6,1.5,2.9-0.4,6.5-3.4c0.6-2.3,0-3.6-1.8-4c-3.8-2.2-3.6-2.1-4.1-2.2C96.2,256,98.5,265.7,98.8,266.1z M735.5,259.4
	c0.1-1.2-3.9,0.2-3.6,3.4C734.1,262.6,735.3,261.5,735.5,259.4z M125.2,273.6c2.4,0.7,4.3-0.1,5.8-2.4c-3.8-4.6-1.1-4.9-0.2-6.2
	c-4.3-3.3-5.6,1.7-5.2,3.2C126.8,272.7,123.6,273.2,125.2,273.6z M150.5,270c-0.1,0.9,0.6,1.4,2.1,1.4
	C154.8,264.7,148.9,263,150.5,270z M70.1,278c-5.9,2.7-4.4,4.7-2.5,6.9c1,1.1,2.4,2.3,3.9,2.8C78.2,289.9,73.7,276.4,70.1,278z
	 M124.6,287.4c1.7,0.3-0.4-2.3-1.4-3.7C121.6,281.8,119.4,286.3,124.6,287.4z M759,335.1c3.3-0.6,3.2-4.6-0.2-4.5
	C754.7,330.7,755,335.8,759,335.1z M770.5,360c0.6-0.8,0.4-1.3,0-4.9c-0.1-1.1,0.4-1.4,1-2.7c0.6-1.6-6.3-3.2-11.6,2.1
	c-3.7,3.7-2.1,8.7,0.6,9C765.3,364.1,768.6,362.9,770.5,360z M727.6,352.8c-4,0.5-5,4.5-1.6,5.6
	C732.4,360.5,734.8,351.8,727.6,352.8z M766.8,385.7c3.9,6.9,13.7,9.2,15.3,8.3c2.9-1.5,7-7.3,2-6.4c-2.7,1.5-3.4-1.3,0.5-2.7
	c0.6-1,1.5-1.6,2.7-2c2.9-4.5,5.7-3.5,2.9-5.6c-1.5-0.2-2.1-1.4-1.9-3.7c3.1-0.1,4.7,2,4.3,0.5c-1-3.6-4.8-4.2-7.4-5.5
	C775.2,363.4,761.8,375.1,766.8,385.7z M743.7,375.5c-1.7-3.8-8.2,0.4-5.7,3.6C740,381.8,745,378.6,743.7,375.5z M756.2,395.8
	c-1.2-1.6,1.7-5.3,0.5-8.5c-1.1-3-4.1-5.1-7.3-4c-10.2,3.5-7.2,15.3-1,13.5c1.5-0.4-0.2,3.3-1.8,6.6c-2.3,4.9,1.6,9.9,3.4,9.3
	c10.2-3.7,12.7-2.4,10.2-12.1c-0.4-1.4,0.9-1.5,1.2-3.7C761.7,394.7,757.5,397.5,756.2,395.8z M725.4,410.1
	c-4.4,0.1-2.1,9.2,1.5,5.9C728.9,414.2,727.8,410.1,725.4,410.1z M108.4,418.2c-1.1-0.1-6.7,2.6-3.8,6.1c0,0.2,1.6,1.6,3.2,0.3
	c2.8-2.3,4.3-3,2.1-5.7C110.1,419,109.3,418.3,108.4,418.2z M80.5,432.2c-2.6,1.9-3.1,2.6-4.3,2.2c-2.2-0.6-2.8-0.9-3,0.1
	c-0.4,1.3,0.6,4.4,3.1,5.9c3.3,2,6.4-0.3,9.4,3.9c2.7,3.7,8.5-8.2,3.2-10.1C81.5,431.8,81.4,431.5,80.5,432.2z M65.1,447.8l11.9,2.8
	c0.5-3.9-8.3-2.7-9.3-5.5c-4.2-12.4-4-12.3-11.2-12.7c-10.2,0.2-10.8,15.5-4.3,18.1C58.8,454.4,63.2,447.4,65.1,447.8z M89.5,453.6
	c0.5,1.4,3.1,1.4,3.3-0.3c0.3-3.5,1-5.1-1.5-5.3C89.1,447.9,89.5,453.5,89.5,453.6z M777.6,460c1-3.3-1.9-2-1.9-4
	c-0.1-2.2,0.1-3.2-0.7-3.7c-2.5-1.7-6.1,0-7.4,1c-1.4,1-0.4,2-1.8,4.4C762.9,462.6,774.7,469.8,777.6,460z M820.1,482.4
	c-0.7-1.3,0-2.2-1.1-2.9c-1.5-0.9-0.6,2.7-4.1,1.2c-1.3-0.6-3.2,0-4-1.9c-0.5-1.2,0.5-1.2,3.6-2.3c-5.4-3.7-14.3-7.2-19.9-3.2
	l-0.1,5c-1,1.1-2.2,1.1-3.3,0c-4.6-2.1-3.2-2.8-4.9,3c-1.2,0.1-3.2,0.5-3.6,1.7c-1.8,6-6.6,2.2-4.4,1.1c3.2-1.6,1.8-3.4,3.4-4.7
	c1.1-0.9,2.7-2.9,1.9-4.2c-1.4-2.1,0.3,0.2-7.7,6.1c-2,1.5-1.1,3.9-2.9,3.9c-1.3,0-1.9-0.1-2.6,0.6c-0.9,0.8-2.7,1.1-2.2-0.2
	c0.6-1.9-1-3-2.1-2.9c-1.2,0.2-1.5,0.9-2.5,0.3c-0.9-0.6-1.7-1.8-0.9-2.7c1.4-1.7,1.9-3.5,4.5-6.8c0.7-0.9-1.1-1.3-4.1-3.6
	c-1.8-1.3-1.2-4.7-6.5-4.1c-2.1,0.2-0.2-1.9-2.3-3c-0.3-0.1-2.2-4.6-1.6-5.6c0.8-1.3,2.9-0.4,3.3,1.2c0.1,0.2,0.2,1,1.9,1.6
	c2.2,0.7-1.2-6-1.3-6.9c-0.3-4.2,4.5-2.4,6.3-8.5c1.8-6.6,20.8,9-2.4-9.8c-1.5-1.2-4,0.1-8.1-3.1c-1-0.8-2.6-0.2-3.7,0.4
	c-0.9,0.5-1.2,0-2.8-1.7c-1.5-1.6-16.9-2-21.1,2.3c-10.3,10.4-8.1,0.3-10.9,5.7c-0.9,1.6-2.8,1.4-4.1,4.6c-0.4,1-1.5,0.6-1.8-0.1
	c-0.4-0.7,1.1-7.4-1.9-7.9c-3.9-0.6-3.9,9.6-7.7,5.4c-2.2-2.4,1.1-2.1,6-10.2c1.6-2.7,1.6-4.4,2.9-10.2c2.7-4.2,6.6-3.8,8-5.3
	c2.6-2.6-0.8-7.3-3.2-9.1c-1.6-1.2,6.2-4.9,7.9-5.7c4.3-1.8,2.8-4.4,5.2-7.1c1.7-2,2.5-4.1,2.3-6.4c-1.8,0.1-2.8,0.6-3.3,1.4
	c-1.7,3.2-2.5,3-2.5-0.7c0.1-4.2,2.5-6.6,7.3-7.2c6.4,1.9,7.5-2.6,6.7-4.1c-2.7-4.6-8.5-1.8-8.7-6c-0.1-1.8-1.2-3.4-2.9-4.2
	c-4.2-2-4.2-6-10.2-5c-3,0.5-6.1,1.3-5.5-0.8c1.1-3-2-2.7-3.4-2c-3.9,2.1-4.1,4.6-5.8,5.4c-5.1,2.6-5.2,2.8-6.3,2.5
	c-1.6-0.5-4.5-2.1-3.7-3.6c1.2-2,11.3,0.5,6.9-3.7c-4.2-0.4-7.9-0.8-8.5-5.9c-0.1-0.5,0.1-1,0.5-1.4c8-7.5,8-8,8.6-6.5
	c2.7,7.4,8.3,4.1,9,8.6c0.2,0.9,0.7,0.7,1.9,0.4c1-2.8,2.9-4.9,5.4-6.5c2.6-1.7,2.4,2.6,1,3.6c-1.7,1.2-2.6,4.7-0.9,3.9
	c3.3-1.7,10.2-7.3,8.7-9.5c-0.9-1.4-2.2-2.8-0.8-3.9c0.3-0.2,0.6-0.3,0.9-0.3c10.9,0.2,8.2-12.9-0.3-8.7c-4.6,2.2-2.9,6.2-4.4,6.3
	c-0.5,0-0.7,0.1-0.8-0.2c-0.3-1.5-0.2-3.1,0.2-4.6c-1.3-3.2-1.5-5.6-0.6-7.1c1.4-0.9,3.4-3,2.2-4.1c-5.3-5.2,2.3-4.7-2.1-9.7
	c-3-3.4,6.5-6.4,4.2-11.2c-0.4-0.8-1.2-1.5-2-1.9c-9.8-3.6-7.8-0.9-9.9,0.2c-1.8,1-4.3-3.2,2.2-3.3c-1.1-2.7-1.6-3.3-0.8-4.1
	c5.3-5.3,5.9,0.8,8.3,1.1c3.4,0.4,4,0.4,4.7,1.1c1.7,1.7-3.3,11.5,4,8.8c4.8-1.7,2.7-3.6,4.4-4.4c3.2-1.3,3.1-2.8,4.7-3
	c7.3-1.3-2.8,8.8-2.7,9.6c0.2,1.3,4.9,0,4.5,2.1c-0.5,2.7-0.7,3.2,0.2,3.6c1.9,1,1.3,3.3,0.4,2.4c-4.5-4.8-8.4,2.3-12.9-0.2
	c-2.5-1.4-3.9-0.2-5.4,1.3c-2.2,2.1,0.1,3.1,6.2,8.5c3.1,2.6,7.3-2.5,16.9,5c4.7,0.3,5.1,0.5,6,0c4.1-2.4,7.5-3.2,8.2-9
	c1.7-3.7,1.5-7.7-0.5-12.1c-0.8-1.9-3.8-1.9-8.9-9.1c-1.1-1.6,1.4,0.8,2.6-1c4.8-7,8.2-5.1,10.6-9.3c1.3-2.4,6.9,7.3,12.6,6
	c7.3-1.6,10.8-6,10.5-13.3c-0.2-6-2.8-1.1-10.9-20c3.1-5.1-20.2-17-24.3-12.5c-1.4,1.6-2.6,3.7-3.4,6.2c-1.6-1.3-2.2-2.7-1.8-4.4
	c0.3-1.1-1-0.7-1.5,0.1c-2.2,3.1-8.7,5.7-5.1,9.3c0.2,4.9-1.9,6.4-8.3,15.9c-0.2,0.3-0.3,0.3-1-0.2c-0.6-0.4-0.5-0.2,3.8-7
	c0.6-1,0.4-1.5,0.1-4.9c-11.7-6.9-6.3-2.7-9.3-1.3c-1.6,0.8-1,2.9-3.3,4.5c-1.4,1-2.6-0.4-2.1-1.4c1.3-2.9,1.5-3.6,0.5-3.7
	c-2.7-0.5-2.4,3.2-2.3,5.9c0,1.1-0.4,1.1-5.6,4.2c-1.5,0.9-3.3-1.6-9.1-0.2c-2.7,0.6-2.6-11.1-5.7-8.8c-0.7,0.5-0.6,1-0.6,1.9
	c0,1.6-3.5,1.8-5.4,0.8c-7-3.8-7.1-4-7.7-3.3c-1,1-1,5.1,1.7,8c1,1.1-0.7,0.4-2.9,0c-1.8-0.4-0.1-3.2-3.3-4.8
	c-0.9-0.5-2.6-1.7-2.6-2.9c0.3-5.8,7-6.4,5.6-4.6c-2.3,3-4,2.9-3.3,4.1c0.3,0.5,0.4,1,1,0.7c7.6-3.9,5-3.4,9.8-0.9
	c0.6,0.3,1.4,0.1,1.8-0.5c3.9-6.7,0.9-4,9.3-9.4c0.7-0.5,0-1-0.3-1.4c-0.4-0.4-3,3.2-8.6,3.2c-1.6,0,2.1,2.9-0.9,4.4
	c-0.4,0.2-0.8,0.2-1.1,0.1c-2.5-0.6-0.1-3.7-2.2-5.9c0.1-5.5-0.2-5.9,0.9-5.9c0.3,0,1-0.2,1.2,0.6c0.9,3.1,1.1,5.2,1.9,3.5
	c0.8-1.7,1.1-2.2,0.3-2.9c-3.8-3.2-4-8.4-9.3-10.3c-7.7-2.8-9.2-5.6-10.6-4.3c-2.5,2.3-1.5,2.2-3.8,0.7c-11-12.2-15.9-6.4-17.9-13.1
	c-0.7-2.3-8.8-10.3-17.7-3.9c-0.3,2.6-1.6,3.6-2,1.2c-1.3-7.2,18.2-9.6,7.2-18.5c-1.7-1.3,2.6-1.4,4.8,0.9c8,8.3,9.7,1.5,7.9,0.1
	c-5.6-4.3-2.5-5-8.2-13c-0.5-1.4-1.9-2.2-2.6-0.9c-2.3,4.4-5.8,3.1-7.5-0.7c-2,1.4-4.5,3.9-5.2,2.3c-2.1-5.3-12.9-11.6-7.4-15.7
	l0.7-3.6c0.5-2.7-6.3-5.4-4.7-9.5c1.9-4.8-4.5-4-8.1-7.3c-5.2-4.8-5.6-4.3-6-5.7c-0.5-1.7-0.7,1.4-2.3,2.4
	c-12.5,7.4-13.6,8.8-18.8,8.9c-1.9,0.1-1.1,1.4-4,5.7c-1.8,2.7-1.9,4.8-1.5,11.8c0.1,1.9-4.9,3.7-5.3-6.1
	c-24.2-14.3-14.7-9.2-21.1-8.2c-2.4,0.4-6.6,0.2-7.4-2.7c-10.5-7.5-10.4-5.5-3.9-13.3c1-1.1-2-6.6-5.5-8c-4.1-1.6-12.7-3.5-7,0.3
	c2.7,1.7,2.1,4.3,0.8,4.9c-9.8,4.1-2.9-1.5-10.9-6.6c-1.5-1,1.6-2,3.1-2.1c1.8-0.1-2.6-8.6-2.4-9.9c0.7-5.6-4.3,2-6.8,2
	c-3.2,0-1.3-4.8,1.6-7.7c0.7-0.7,0.5-1.2,0.3-4.2c2.4-4.6,7.6,2.2,6-2.2c-4.9-13.1-4.6-17.2-10.1-17.7c-4.1-0.4-1.9-4.2-4.3-5.8
	c-2.7-1.8-0.2,1.6,0,4.2c0.3,4.8-9.4,5.4-6.6,16.6c-1.4,6.1-1.3,6.6-2.5,7c-16.6,4.5-5.7,0.1-17.7,13.6c-2.7,3.1-6.5,4-11.5,2.9
	c-21.3-8.6-6.7,0.4-21.5-8.8c-1.8-1.1-0.3-4.6-5.9-9.2c0.4-6.9-10.7-3.3-10.3,4.1c0.1,2-4-0.1-1.5-2c0.6-0.5,0.7-1,0.4-1.6
	c0.9-0.9,1.5-1.8,1.9-2.8c0.5-1.4,1.7-0.9,3-2.6c2.8-3.6,7.5,1.1,11.2,4.9c2.6,2.7,2.9,7.3,7.4,8.3c1.2,0.3,1.8-0.2,1.9-1.4
	c0.4-8.8,4.1-6.1,4.4-9.1c1.9-17.1,1.5-10.1-5-10.5c-2.1-0.1-1.3-6.2-9.6-8.3c-1.6-0.4-1.4,1.1-3.1,2.2c-1.7,1.1-0.6-1.9-4.1-3.8
	c-1.7-0.9-3.8,1.3-7.9-1.6c-2.8-1.9-2.1,3.8-4.6,3.8c-3.4,0-4-0.3-4.6,0.6c-1.1,1.7-2.8,1.7-5.3-0.1c-3.4,0.4-6.4,1.3-5.7-2.2
	c-3.4,0.2-6.2,2.4-8.4,6.5c-0.1,3.3,1.4,2,1.4,7.4c0,1.9,2,2.2,0.4,4c-1.3,1.4-1.5-1.3-1-2.8c0.4-1.3,0.2-2.2-0.8-2.6
	c-1.4-2-3.2-2.3-5.4-0.9c-4.9,0.7-5.7,1-6.9,0.4c-3.6-1.8-3.5-5.6-3.7-6.1c-0.6-1.3-1.1-0.9-11.5-0.7c-0.3,0,0.3-0.3-0.2-0.9
	c2-0.7,4.1-2,6.1-3.9l-6.7-1.8c-1.6-0.4-1.2-2.8-3.7-3.9c-1.8-0.8-3-1.7-3.7-2.7c-8.1-0.4-10.5,9.1-13.8,4.6c-1-1.3-4.5,0.8-5.7,1.6
	c1.8,0.7,1.6,2.7,0.4,3.3c-1.9,0.9-5.5,0.5,0.3,0.8c1.9,0.1,0.2,2.7,4.4,5.3c2.3,1.4,3.8,3.1,4.4,5.2c1.1,3.7,8.2,8.3,11,4.1
	c3.1-13,9.1-10.1,2.4-1.6c-0.2,2.3-0.5,3.6-0.8,4c-3.7,2.8-3,4.9-4.6,4.7c-1.8-0.1-3.9-2.4-4.6,1.1c-1.3,6.7,4.6,4.5,6.6,6.7
	c1.2,1.2-2.1,6.4-8.5,6.2c-1.9,0-0.5-2.8-6.5-10.3c0.1-1.9-1.4-5.3-2.4-4c-0.5,0.6-0.4,1.5-1.4,1.5c-2.4,0-2.8-1.6-3.6-0.7
	c-2.9,3.1-2.8-6.5-7.6-5.3c-7.6,1.9-3.3,7.9-10.1,12.1c-7-4.2-5.5-1.6-5.8,0.5c-0.2,1.2-4,3-8.9-3.7c-0.7-1-1.3-0.2-3.1,1.1
	c-0.9,0.7-1.1,0.5-7.1-0.6c-1.5-0.2-2.1-2.8-2.1-4.2c0.3-4.2,8.5-1.6,7.3-3.8c-0.4-0.6-1.5,0.2-2.4-1c-1.4-1.7,3.8-6.2,0-6.4
	c-6.1-0.3-9.8-1.2-10,1.9c-0.1,2.1,4,6.2-0.5,6.8l-0.4,2.5c2.7,2.6,0.6,6.4-3.2,6.1c-5.6,6.5-5.7,6.3-5.6,7.4c0.1,3.5-5.8-1-4.2-2.5
	c0.8-0.8,1.6,0.1,2.7-0.7c1.9-1.4,0.9-3.7-0.4-4.2c-2.3-1-3.7-2.7-4.3-5c0.9-0.7,1.4-1.5,1.5-2.3c-6.9-4-6.8-8.7-8.8-5.2
	c-1.4,2.5-4.1,4.7-1.6,7c6.4,5.6,5.4-1.5,5.6,8.5c0,2.2-6.1,3.3-3.7,5.3c0.3,0.2,0,0.1,4,1.4c2.9,4.5,0.2,3.2,4,6.2
	c0.3,0.3,0.3,0.6,0,0.8c-2,1.4-3.5,3.2-4.4,5.4c-9.4,7.6-7.6,10.4-14,12.7c-0.6,0.2-1.9-0.5,0.2-2.6c2.2-5.6,0.8-7.5,2.1-8.8
	c4.1-4.1,2.1-5.9,3.9-9.2c-0.6-1.2-0.9-2.3-1.7-1.2c-9.4,12.6-4.5,10.4-15.6,10.8c-0.6,0.9-2.4,1.1-2.2-0.2c0-0.2,2.1-4.6-2.8-11.8
	c-0.9,0.1-11.6,2.1-12.9,1.7c-1.9-0.5-1.7,5.2,0.1,8.3c0.3,0.5,0.4,1,0.3,1.5c-0.5,8.1,4.1,11.5,7.4,17.5c0.5,1,1.7,1.6,3.5,2
	c0.3-0.2,0.5-0.8,0.8-1.8c0.8-3.6,5.1-6.5,4.3-5c-4.1,8.6-3.8,7.2-3,8.1c-1.7,0.9-5.8,4.1-4,4.5c4.1,0.8,0.8,4.6,2.2,5.3
	c4.1,0.2,4.4,3.8,3,4.7c-4,2.7-1.8,5.7-3.3,6.9c-1.9,1.5-4.5-0.3-7,0.6c-2.9,0.4-3.3-1.9-4.8-1.4c-6.1,1.9-5.8-5.7-7-2.3
	c-1.2,3.7-3.9,2.3-4.8,4.4l-3.6,8.2c-3.2,2.5-4.7,4.8-4.4,6.8c-0.9,8.2-0.7,7.6-4.7,4.1c-1.3-1.1-1.9,0.7-13.6,3.3
	c-5.3,1.2-6.4,16.2-13.8,10.5c-0.4-0.3-0.7-0.2-0.8,0.2c-5.5,15-9.2,9.6-6.8,15.3c0.7,1.5-1.2,1.5-2.7,5.2c-0.4,1-0.2,1.2,1.9,6.6
	c9.6,5.3,1.2,2.9-3.7,2.6c-4.6-1.6-7.8,2.8-4.1,6.4c3,2.9,6.9,6.1,3.9,8.9c-6.6,6.2,1.9,4.9-9,7.8c-1.1,0.3-1,0.9-1.5,3.6
	c-0.2,1.2-0.5,1-6.4,3.4c-0.8-0.2-1.7,0.5-1.8,1.9c-0.1,3.9-2.5,5.2-2.4,8.7c0,1.2-0.1,1-4.9,9c-3.6,2.3-3.6,5.3-5.2,8.5
	c-4,4.3-8.4,4-8.4,3c0-0.9,0-1.1,0.4-1.3c2.3-1.1,0.1-5.6-1.6-7.5c-0.7-0.9-1.2-0.6-1.9-1.1c-1.5-1.2,2.4-4-1.8-6.8
	c-1.4-1-1,2.2-5.1,3.7c-1,0.4-1.6,1.4-1.8,2.4c-4,3.3-4.1,3.4-4.8,3.6c-4.3,1.3-2.6-5.2-7.7-1.9c-2.4,1.5-5.6-0.3-5.5-3.1
	c0.5-10.2,12.1-5,12.5-8.4c0.1-1.2-7.3,1.7-8.9-1.9c-2.3-5.1-7.9,0.5-11.7,3.1c-5.8,0.1-9.1,5.6-9.9,16.5c-0.9,0.1-1,2-0.6,3.1
	c3.2,8-7.8,11.2-0.6,19.5c1.1,1.3-0.5-0.8,1.7-1.5c0.8-0.3,4.6,0.4,6.4-4c0.6-1.4,1.5-0.8,3-2.3c0.9-0.8,0.5-1.5-0.1-4.4
	c-0.4-2.3,5.2-0.8,4.2-3.6c-0.4-1.1-3.4-1.3-2.2-4.5c0.7-1.9,5,1.2,5.9,4.3c1,3.7,8.4,0.6,8.3,7.9c0,0.8,0.5,0.7,2,0.7
	c1.5,0,1.4,1.1,3.2,0.8c1.2-0.2,1.1-1.5,0.5-2.2c-0.8-0.9-1.4-0.5-3-0.7c-1.3-0.2-2-2.4,0.6-2.4c1,0,8.7-2.7,9.1-3.7
	c1.2-2.5,7-0.1-2.4,6.8c-0.9,0.7-0.5,1.4-0.1,3.6c0.3,2-1.2,2.6-1.9,1.8c-1.8-1.9-4.2-2.7-6.9-1.9c-1.5,0.5-1.6,4.3,1.5,5.9
	c1.4,1.4,2.6,0.7,3,2.1c0.6,1.7-2,2.5-0.2,2.8c4.5,0.7,4.9,0.5,5.1,1.5c0.7,3.3-2.9,2-10.7,7.7c-1,0.8-3.1,0-3.2-1.9
	c-0.5-5.7,11-6.6,4.9-8.5c-6.9-2.1-6-7.3-8.3-4.9c-1.1,1.1,0.5,1.1,1,2c0.8,1.4-0.9,1-3.7,1c-1.5,0-2.1,2-5,2.7
	c-2.8,0.7-2.2,4.9-1.1,6.5c1,1.5,0.1-0.5,0.8-1.2c8.7-9.7,12.3,0.7,9.2,1.9c-1.3,0.5-3.2-2.1-5.3-0.3c-1.6,1.3-2.9,0.6-2.4,1.7
	c3.2,7,3.5,7.1,3.1,8.2c-1.7,4.4-1.7,5.2-3.2,5.5c-9,2.2-13.3,0.3-15.2,1.1c-10.1,4.1-13.9,1.7-14.1,5.9c-0.4,7.4-0.6,7.7,0.3,7.4
	c1.8-0.5,2.5-0.9,3.4,0.1c2.6,2.9,6.3,0.4,4.7,3c-2.6,4.2-1.6,13.7,4.4,16.3c3.7,1.6-3.9-5.2-1.4-6.2c0.1,0,9.6,1.7,1.4-4.1
	c-4.6-3.2,4.4-11,5.6,6.9c10.7-2.4,8.8-0.8,10-7.3c-0.8-2.5-0.7-4.6,0.2-6.4c1.1-1.9,5.5,1.6,10.7-5.5c0.7-0.9,0-1.5-0.7-2.1
	c-1.2-1.2-0.5-4.6,3.4-4.3c6.4,5.2,6.7,6.1,9,6.4c1.9,0.2,1.6,3.5,3.4,3.6c4.6,0.3,1.1-1.1,13.5-0.8c2.8,0.1-1.2-2.7,2.6-5.6
	c2.5-1.8-0.2-5.1,4.1-5.8c5.4-0.9-1.1,2.2-0.1,5.5c0.4,1.2,0.4,0.7-5.6,12c-2.6,2.4-4.8,5-6.7,7.6c-1.5,2.1-4.9,3.9-4.9,6.5
	c-0.1,11.7-1.3,11.9,1.5,12.6c2-1.3,2.8-2.3,3.8-1.4c3.1,2.7,4.8-0.5,6.3,0.3c0.5,0.3,0.7,1,0.2,1.5c-3.9,4.2-3.9,4.5-4.6,3.9
	c-0.8-0.7-2.4-2-3.5-2.1c-3.4-0.1,0.1,2,3.8,4.8c3.3,2.6-6.1,13.5,0.3,16.8c1,3.2,0,6.6,2.4,10c2,2.8,5.7,3.7,9.8,8
	c-11.5,14-15.4,16.2-10.9,20.2c-0.6,7.8-0.4,9.3-1.4,8.3c-7.6-7.5-7.3-7.6-8.1-6.9c-1.9,1.5-3.1,3.1-6,2.6
	c-2.8-2.5-1.3-1.4-10.1-2.7c-2.6-0.4,4.9,8.5,7.6,7.5c2.5-0.9,1.4-3.7,4.3-1.6c1.5,1.1-3.6,5.2-7.2,4.9c-4.2,0.8-4.8,0.7-5.2,1.8
	c-0.7,1.9-3,1.9-3.6,0.8c-1.5-2.8,1.2-4.3-0.6-4.7c-2.4-0.4-3.7,3.8-3.5,6.5c0.1,1.4-1.5,0.8-2.6-0.1c-5.3-6.2-10.6,1.5-10.6,2.6
	c-0.1,2.8,0.6,5.7,2.4,8.9c-0.4,3.2,1.9,1.4,5.6,1.8c0.8-0.4,3.5-1.2,4-0.6c0.5,0.6,0,0.7-2.9,3.8c-1.4,1.5,0.6,1.4,2.7,1.6
	c2,0.2,2.8-2.3,2.2-4.3c-0.3-0.9,0-1.5,0.3-2.4c1.2-3.8-0.5-4.6,1.8-3.5c0.5,0.2-0.5,3.5,1.8,7.1c0.5,0.8,1,0.6,3.6,0.4
	c0.9,2.1,3.5,4.4,5,5.1c1,0.5-0.1,0.9-0.7,2.3c-0.5,1.3,4.9,9.4-1,8.8c-3.1-0.7-4.4-0.2-3.2-5c0-0.2-0.1-0.5-0.2-0.6
	c-0.7-0.6-2.5,2.8-3.4,3.4c-2,1.2-2.2-2-5.8-3.2c-1.5-0.5,0.2-1.3,0.2-5.9c0-2.2-1.2,1.3-6.1,2.6c-5.4,1.4,0.9,15.8,0.6,17.3
	c-0.7,3.4-6,2.1-7,4.5c-8.1,18,0.9,11.6,2.3,17.1c0.6,2.5,7.9,7.6,8.9,5.6c0.7-1.3-0.6-1.7,0.1-3.4c0.4-1,0.5-0.7,6.9,0.5
	c0.5,0.1,1,0.5,1.1,1.2c0.4,2.7-3,1.4-4.7,0.8c-2.4-0.8-1.3,7.3,2,6.6c5-1,13.7,9.4,16.6,5.4c1.7-2.3-1.6-6.8,0.9-8.3
	c3.2-1.8,5.4,5.3,7.2,9.1c1.7,3.5,10.6-2.9,11.7-11.7c2-0.1,2.6,0.8,3.6,0.4c0.7-0.3,1.6-4.9,5.2-5.3c2.8,3.9,6,4.4,9.6,1.5
	c0.3-2.8-0.3-12.4-3.7-15.6c-1.2-4.2-4.2-2-12.3,2.9c0.7-6.6,4.8-5.9,6-7.4c0.7-0.9,2.2-0.9,4.3,0c2.9,4.5-1,0.9,15,11.5
	c0.6-0.4,1.1-0.2,1.4,0.4c0.6,1,1.2,0.6,4.5,0c1.3-0.3,3,1.2,2.3,3.9c-0.5,1.7,2,0.7,2.2-1c0.1-1,0.2-0.8,7.4-1.3
	c0.6-0.1,0.7,0.5,0.8,0.8c0.8,2.3-5.7,1.1-7.3,5.4c-3.1,7.9,4.9,9.3,6.2,11.1c2.3,1.1,2.9,1.6,3.6,0.9c7.6-7.9,3.4-14.9,7.5-11.3
	c17,15.2,16.9,15.7,19.8,14.7c1.4-0.4,2.6,0.9,3.1,2.2c0.3,1-0.2,1.2-2.2,2.8c-1.4,1-0.8,2.2-0.2,5.2c0.7,3.3-4.3-2.5-8.7-4.3
	c-5.8-2.4-9.3-1.4-10.4,2.9c-0.4,1.1,0.3,1.6,1.9,1.6c1,0,1.7,1.2-0.3,3c-1.5,1-1.6,2.2-2.2,4.1c1.2,6.8,0,3.6-0.9,6.8
	c3.4,3.5,6.5-0.3,10.6,2c-4.5,6.2,1.7,11.2,5,9.5c4.5-2.2,6.2-9.8-1.9-11.5c0-0.7,0.3-1.1,0.9-1.2c7.6,1.1,7.4,8.1,9.7,7.5
	c2.2-0.4-0.8,6-9.7,9.4c-3.3,5.5-2.8,9.1-4.2,11.6c-2.4,4.2-3.8,4.4-3.3,5.4c0.7,1.5,4.5-0.2-3.8,8.6c-6,6.3,2.1,3.5,6.9,4
	c1,0.1,0.9,0.6,1.5,3.8c0.3,1.5,1.7,0.6,3.7,2.6c1.1,1.1,7,1.5,10.2,3.4c3.5,2.1,1.3,5.1,4.5,5.3c3,0.2,5.3-5.9,6.5-6.1
	c2-0.3,5.1,5.8,5.7,8.1c2.1,4.5,5.4,0.9,5.9,2.9c0.7,2.2-2.3,1.2-5.8,0.6c-4.5,1.6-1.3-6.5-5.8-6.1c-0.5,0.1-1,0.6-0.9,1.1
	c0.6,6.7-4.2,7.8-1.7,9.3c0.1,0.1,0.4,0,0.6-0.1c7.1-7.2,5.5,0.4,11.1,0.1c7.1-0.5,4.8-1.1,14.5,10.5c0.7,0.8,1.5,0,1.4-0.9
	c-0.1-2,6.5-5.7,10.3-10.2c2.2-2.5,6.6-10,10.8-9.3c3.5,0.6,1.8,3.5,5.4,6.6c0.9,0.8,0.9,1.7,0.6,2.2c-0.7,1-1.3,0.3-2.7,0.6
	c-2,0.3,0.2,3.9,1.5,5.3c2.1,2.2-2.2,8.1,4.5,8.1c2.1,0,4.7,2.3,5.8,4.2c1.3,2.2,6.4-0.7,8.4-2.3c1-0.8,0.7-0.7-0.1-10.3
	c-0.2-2,0.9-0.6,2.2,0.7c1.1,1.1,5.7,1.3,8.9-1c3.3-5.5,6.5-8.7,0.3-11.9c-1.2-0.6-3.5-2-2.9-3.2c1.6-3.4-2.4-7.7-2.3-7.9
	c8.4,2.6,9.4-0.3,11.1-0.6c3.3-0.4,0.9,2.6,1.5,4.4c0.4,1.2,1.3,0.7,3.4,1.9c1.2,0.7,0.7,2.1-0.3,2.4c-2.2,0.5-4.3,0.4-3.8,4.5
	c0.5,4.3,4.4,4.2,3.2,5.4c-3.8,3.7-2,7.8,1.6,5.7c2.3,1.1,1.6,3.5,1.9,4.3c1.1,2.9,5.3-1.6,5.7,1.7c1.2,9.8-5,9.8,3.5,7.5
	c1.5-0.4,4.2,0.9,5.1,1.9c1.7,2,9,8.8,9,5c0-1.9-1.9-1.1-1.7-2.8c0.3-3.2,1.8-4.1,4.6-2.7c5,10.9,14.9,1.4,16.3,12.5
	c0.2,1.6-1.1,1.6-1.7,3.7c-0.5,1.8-3.1-0.4-4-1.9c-1.2-1.9-7.8,5.2-5.1,14.5c0.5,1.5,5.9,3.1,3.2-9.2c-1.3-5.7,2.7-1.3,5.5-0.9
	c0.9,0.1,1.3,1.3,0.6,1.9c-2.6,2.4-2.1,6.5-1,5c1.9-2.4,3.5-2.1,6-3.5c6.4-3.7,4.2,0.7,4.4,1.8c0.3,1.7,2.5-0.5,5.7,2.2
	c0.8,0.7,1,0.7,6.6,3.4c1.5,0.7,1.7-2.8,6.9-3.3c2.2-0.2,2.8-1.3,2.5-2.5c-0.7-2.5-4.6-0.9-5.2-6c-0.6-5.6-10,6.2-11.6,2.1
	c-0.5-1.4,1.9-0.9,3.6-3.1c1.7-2.2-3.6-2.9-7,1.4c-1.2,1.5-1.5-5.9-3.5-7c-3.2-1.7-5.4-4.2-6.7-7.5c3.1-5.4,9.7-7.4,10.5-6.4
	c2.4,2.8,3.6,4.8,5.7,5.3c2.2,0.5,5.9-0.4,6.1-2.3c0.4-3.8,3-7.6,3.9-7.3c2.1,0.7-2.5,5.2-0.1,7.9c4.2,4.6-2.3,6.4,0.2,6.8
	c3.4,0.4,2.4-11,4.2-11c5.9,0,6.9,2.7,7.6,1.2c1.6-3.3,4.8,0.7,9.1-1.4c6-2.9,12.4,0.2,15.5,4.9c3.2,4.8-2.2,7.7-6.6,11.2
	c-3.1,2.5-3.9-8.8-8.8-6.1c-1,0.5-1.5,1.8-4.8,4.5c-1.1,0.9-0.1,2.2,0.9,2c2.3-0.6,10-1,10.5,0.8c0.5,1.5-2.5,3.2-3.5,1.7
	c-2.1-2.6-2.8,2.7-1.6,3.6c2.9,2.4,6.1-5.8,10.8-6.2c1.7-0.2,2,2.6,1.5,4.3c-1.1,4.2,9.9,0.1,11.6,1.9c1.8,1.8,3.9,0.8,3.8-0.5
	c-0.2-4.8-3.2-0.4-6.5-5.2c-2.2-3.3,5.2-6.6,4.3-2.6c-0.3,1.4,0.1,2.3,1.1,2.7c2.6-3.1,1.8-5.3,3.1-6.5c3.2-2.9,4.5-6.6,9.7-5.7
	c0.5,0.1,0.8,0.6,0.6,1.1c-0.5,1.6-5.9,1.9,0.3,9.1c2.2-1.1,3.9-1.7,5.3-1.5c3.6-1.8,7.1-4.8,5.2-8.3c-2.4-4.4-12.4-2.9-10.7-7.4
	c0.8-2.2-2.3-2.2-3.8-0.4c-2.5,3.2-3.4-1-10.5-6.4c-9.6-7.2,0.6-6.2-4.2-11.9c-0.9-1.1-0.7-2,0.7-2.7c4-1.4,5.1,1.8,8.4,3
	c1.6,0.5,1.6,2.3,3.9,2.6c5.2-1.1,4.9-1.1,5.3-1c1.2,0.4,1.9,0.9,2.5,0.1c7.2-8.3,5.7-15.2,7.9-11.3c2.6,4.5,3,4.8,2.4,5.7
	c-0.7,1.1-1.5,2.8-0.6,3.7c3.6,3.9,3.6,4.3,4.7,4.2c5.7-0.6,5.8-0.7,6.6-0.2c1.7,1.1,2.3,1.7,3.1,1c4.2-3.8,4.5-3.8,4.5-4.9
	c-0.2-3.2,1.2-9.1,4.2-7.7c0.9,0.4,1.1,0.9,2.9,1.5c1.6,0.5,2.1-0.9,6.1-1.1c1.8-0.1,6.8-6.8,7.7-8.2c1.3-1.8,4.2-2.4,4-0.6
	c-0.4,4.5-4.3,3.2-4.7,5.3c-1.1,5.2-5.1,4.6-4.8,6.5c1,6.2,6,6.6,2.8,7.6c-4.8,1.5-6.7,2.9-5.7,4.1c10.3,0.1,11.9-0.4,12.3,1.2
	c0.7,2.7-5.5,3.7-6,4.1c-1.8,1.6-5.1,2.1-6.1,0.7c-2.8-3.9-2-6.6-5.1-6c-5.4,1-7.9,0.9-7.3,3.7c0.4,1.9,2.5,7.2,4.4,6.9
	c2.8-0.5,2.4-2.7,4-2.3c10.4,2.5,14-2.4,15.5,1.8c1.7,4.6,2.1,5,1.6,6c-1.9,3.4-7.6,10.1-10.4,9.9c-1.6-0.1-3-0.5-2.4,1
	c1.1,2.5,3.9,0.7,3,2.6c-0.7,1.4-1.7,2.5-2.8,3.2c-0.5-2.1-1.5-3.3-3-3.6c-1.3-0.3-1.2,0.5-5,2.8c-2.9,1.8-1.7,4.5-0.2,5
	c3.6,1.1,2.8,3.8,4.3,4.8c6.3,4,26.7-7.4,30.4-23.5c0.3-1.2,0.1-2.5-1-2c-2.2,1.1-5.5-2.1-6.9-3.6c-1.7-2-6.1-1.7-5.2-7.5
	c0.1-0.8,0.6-0.8,1.4-1c2.2-0.5-1.2-2.9,2-4.3c2.9-1.3,17.6,0,30.4-6.9c1.3-0.7,1-1.9,2.8-2.7c1-0.4,1.6,0.4,1.5,1.2
	c-0.2,1.1-3.1,2.4-1.4,6.3c0.3,0.8-0.3,1.7-1.2,1.7c-10.1-0.8-14.7,8.1-11.4,9.8c3.4,1.8,10.7,3.4,11.9-1.7c1.7-7.6,2-8.8,10.2-9.4
	c3.6-0.2-0.7,8.1,2.7,9.2c1.5,0.5,4.4-0.8,5.3-3c1.7-4.2-9.6-4.7-5.6-7c13.4-7.5,19.4-14.8,27.1-13.3c5.9,1.2,9.8-3.4,9.2-5.4
	c-1.6-5.1-5.5-6.1-2.4-7.7c0.7-0.4,3.3,0.1,4.5,1.5c5.6,6.8,5,8.5,7.7,8.4c10.1-0.4,7.6,2.2,11.1,5.3c4.6,3.9,4.3,3.2,6.5,2.9
	c1.2-0.1,0.9-0.8,0.9-6.8c0-1-0.4-1.1-2.8-2.9c-2.4-1.8,1.1-3,2.9-1.4c0.6,0.6,0.6,1.1,1,3.1c0.2,1.1,2,0.8,2.4-0.7
	c0.3-1.4-2.7-4.2-0.2-6.2c2.7-2.1,9.8,5.8,5.3,5.3c-2.4-0.3-4.4,4.4-4.7,5.6c-0.4,1.5,1.1,1.8,1.4,3.7c0.4,2,2.6,0.9,3.4,3.7
	c5.2,0,5.6,0.2,6.2-0.7c3.1-4.3,3-9.3-2-13.2c-4.3-3.4-9.6-11.6-6.1-12.3c4.3-0.8,3.9,3.1,6.1,2.2c1.9-0.8,8.8-4.7,7.3-6.1
	c-6.3-5.6,0.9-4.5,3.2-0.2c-0.5,3.7-2.6,5.5-2.5,6.7c0,1.1,1.2,2.5,2.6,0.9c0.7-0.8,1.5-1.3,2.4-0.4c7.2,0.3,3.7,5,2.8,3.1
	c-1.4-2.7-3.3-1.6-2.6,1c0.3,1.2,2.3,8.4,3.4,9.1c1,0.7,2.4,0.4,2.5-0.8c0.3-5,7.4-6.1,6.1-2.3c-0.7,2-4.5,3.5-3.3,5.3
	c3.9,5.6,7.4,3.5,10.6,6.2c2,3.1,0.5,1.6,7.1,6.8c1.5,1.2,2,0.5,11.6-3.7c-1.9-2.9-5,0.6-6.7,0.1c-6.8-1.9-6.6-1.7-6.5-2.1
	c0.1-0.4,0.1-0.7,0.3-0.7c6.8,0,7,0.2,7.9-0.7c2.6-2.7,5.9-2.5,4.5-4.5c-0.6-0.8-5.7,2-7.2,0.9c-4.4-3.5-3.9-12.6-12.9-10.6
	c-4.9,1-1.8-10,7.5-4.1c13.3,8.5,2,12.7,8,12.3c2.1-0.2,2.2-5.1,0.4-8.2c-0.6-1.1,0.7-1.4,1.9-1c2,0.8,1.2-2,6.5-6.1
	c-0.7-1.2,0.2-2.1-1.2-2.9c-2.9-1.7-5.2-2.4-5.1-4.5c0.1-1.2,2.7-5.9,4.2-5.5l11.2,2.9c1.4-2.2,3.3-3.4,5.7-3.5
	c5.1-0.3,0.3-11-6.2-12.6c-2-0.5-13.6-2.7-15.4-1.8c-9.3,5.1-7.8,12.3-10,12.8c-3.6,0.8-4.8-0.2-6,0c-5.8,1.2-1.9,2.8-3.1,4.2
	c-0.1,0.1-1,0.9-1.2-1.4c-0.1-1.5-2-1.3-3.4-0.8c-1,2.5-1,3.2-1.7,3.4c-0.4,0.1-1.8-0.3-1.2-1c1.7-2.6,0.2-3.7-0.9-7.9
	c-0.5-2-3.3-1.9-0.2,1.8c2.1,2.5-0.6,4.1-7.3,9.7c-0.4,0.3-1,0.3-1.3-0.1c-1.4-1.7,7.4-7.5,5.2-11.9c-0.5-1.1,0-1.6,2-5.5
	c0.5-1-2.4-6.9-4.6-7.4c-2.7-0.6-2.8,2.1-6.2,4c-3-2.2-6.7-0.4-5.7,0.9c0.8,1.1,2,0.2,2.5,1.5c0.4,1.1-0.2,2.3-1.3,2.7
	c-6,1.7-4.4,7.3-10.3,7.3c-1,0-1.1,0.4-2.7,2.7c0.4,4.2,0.4,7.3-0.2,9.3c-17.3-2.2-18.4-1.6-18.4-4.8c0-1.2,0.8-0.9,5.2-1.3
	c3.6-2.5,4.3-3,4-3.8c-0.4-1.4-1.3-0.6-4.4,1.1c-2.6,1.4-10.4-3.1-13.6-5.9c-3.8-3.3-1.7-10.2,0.1-9.7c4.8,1.1,7.5-2.5,12.4-0.7
	c3.1,1.2,5.2-4.2,7.9-1.6c1.6,1.5-4.8,1.7-6.7,5.7c-2.2,4.5,4.1,9.9,7.3,6c0.6-0.7,0.9-1.7,0.9-2.5c-0.3-6,5.5-7,3.5-1.4
	c-0.7,1.9,2.8-1.5,3.9,2.6c0.5,1.8,2.3-0.2,1.8-2.2c-0.7-2.4,3-2.5,2.4-4.2c-0.3-0.7-0.6-0.5-3.8,0c-1.6,0.2-1.6-1.8-5.3-3.5
	c-1.1-0.5-1.4-2.1-0.6-2.9c0.8-0.8,1.3-3.6-0.4-3.4c-2.8,0.3-3-2.5-1.9-3.4c1.1-0.9,1.7-1.2,1.3-2.1c-1.7-4.6,4.4-3.4,3.7-1.5
	c-0.9,2.5-2.4,2.4-1.9,3.8c1,2.8,4.8,1.6,5.6-1.1c1.8-6.2,4.6-7.3,4.2-9.2c-1.6-6.8-5.1-7.6-4.1-8.9c1-1.3,0.9-0.8,7.7,5.1
	c7.7,13.2,4.1-3.6,17.1,15c2.1,3.1,6,1.5,6.4-0.2c1.1-4.7,3.7-3.2,13-12.8c0.2-0.3,7.6-3.9,8.3-2.6c0.6,1.1-0.7,4-4.3,4.3
	c1.1,6,12.6,9.7,18.7,10.4c2.7,1.9,8.9,4,10.8,2.6c0.9-0.6,2-1,2.8-0.2c6.7,6.3,10.3-2.7,16.3-10.4c0.8-1,0.1-1.3-0.2-6.5
	c-0.1-2.1,1.3-1.9,1.4-3.2c0.5-4.7-3-5.2-2.4-7.1c2.2-7.3-9.5-5.2,2-12.7c0.7-2.6,3.8-10,6.8-8.4l2.7,1.4c4.2-2.3,6.4-4.4,6.5-6.5
	c-4.5-4.7-4.6-5.9-9-5.6c-1.9,0.1-4.1-3.8,2.3-3.6c1.9,0.1,2-2.1,6.4-1.2c2.4-7.9-0.3-10.6,2.2-10.4c4.5,0.5,0.7,2.5,2.2,5.6
	c1.2,2.6,3.2,3.9,5.9,3.9c1.9,0,2.9,1.5,5.4,0.4c1.2-0.5,0.4-1.4,1.3-3c0.9-1.7,0.6,1.7,3.7,0.9c16.1-4,14.1-1.8,20.7-6.2
	c1-0.6,0.8-1.3,1-4.9c0.1-1.9,3.3-2.7,5-8c0-4.4-0.3-5.9,1.3-6.1c6.8-0.8,6.9-1.1,7.4-0.2c3,5.7,3,6.2,4.1,5.8
	c2.6-1.1-7.5-14.1,6.2-14.9c4.9-0.3,12.2,6.7,13.2,6.7c1.9,0-2.4-1.7-0.9-6.8c0.8-2.5,9.4-3.2,8.3-6.9
	C822.1,485.9,822,485.8,820.1,482.4z M826.6,501.3c-4.8-3.9,3,4.2,3.5,3.6C830.1,504.3,827.2,501.7,826.6,501.3z M49.6,536.1
	c-2.3,1.7-3.7,4.4-3.9,7.2c1.8,2.6,4.1,3.6,7,3.1C56.4,545.7,54.1,537.3,49.6,536.1z M137.7,561.9c4.1-2.7,9.7-8,3.6-6.9
	C137.9,558,134.2,564.2,137.7,561.9z M162.3,568.7c0.7-2.5-3.7-7.1-7.8-4.1c-1.1,2.9,0.1,3.4,5,9
	C160.9,575.3,161.6,571.2,162.3,568.7z M62.4,566.1c-6.4,0-6.4,9.6,0,9.6C68.7,575.8,68.8,566.1,62.4,566.1z M169.2,569
	c-3.3-2.6-5.8,5.9-1.8,6.4C170.1,575.7,171.4,570.7,169.2,569z M120.8,610.3c-0.3,5.3,3.2,8.5,10.6,9.6c5.5,0.8,1.1-6.8,12.5-7.9
	c8.7-3.5,8.8-8.7,10.9-5.6c1.1,1.7,4.7,6.1,6.7,6c5.9-0.4,7.5,0.6,7.3-3.5c4.6-3.8,7.3,0.9,13.1-1.1c1.3-0.8,2-1.9,2.1-3.4
	c-3.9-5.1-7.6-11.8-11.9-12.2c-5.2-0.5-3.4,3.9-5.5,3.9c-3.4,0.1-1,3-2.8,3.4c-8.8,2.1-2.7-3.1-6.3-4.3c-1.4-0.5-3.8-2-2.4-2.6
	c4.1-1.9,6.2,1.4,5.9-0.7c-0.2-1.6-3.9-4.3,0.7-6.2c4.4-1.8-2.5-7.2-3.5-7.2c-14,0.5-10.8,6.8-28,16.9
	C124.6,598.6,122.8,603.4,120.8,610.3z M166.3,583c0.4,3.8,2.2,6.1,5.5,6.9C179.9,582.6,170.2,575.4,166.3,583z M93.1,623.6
	c0,0.6,0.1,1.1,0.7,1.5c1.9,1,1.7-2.1,5.9-6c2.1-2,4.9,2.1,7.5-0.9c2.4-2.7,0.8-11-7.9-13.2c-1.1,0.8-3.1,2.3-2.5,3.5
	c1.1,2.7-3.3,2.1-4.3,3.9c-1,1.7,4.5,3-2.7,6.6C83.3,622.2,93.2,621.5,93.1,623.6z M159.6,685.3c14.4-7.9,6.9-0.9,19.7-11.4
	c1.4-1.2-0.8-5.6,1.3-5.2c3.1,0.6,8.5-0.3,9.9-2.7l-3-1c-0.9,0.4-1.6,0.3-2.2-0.1c-5.7-3.8-2.7-8.2-3.8-9.9c-2-3.1-5.2-2.1-5.9-2.3
	c-3.8-1,3.2-3.8-0.9-9.6c-4.2-6-0.5-3.6-4.7-7.5c-3.6-0.4-3.8-3-5.4-2.4c-4,1.3-4.9,1.9-5.2,0.5c-1.4-7.2-3.2-10.8-10.5-10.5
	c-6.2,3-6.1-2.9-9.7-1.4c-2.5,1-8.2,3.2-7.8,5c1.3,6.3,6.2,5.7,7.1,6.8c1.3,1.7-1.6,4.7-4.4,1.4c-2.6-3-8.7,10.4-5.3,10.5
	c1.7,0.1,8.4-0.1,8.7-1.9c2.8-15.7,12.5-6,2.5,7.9c1.7-0.8,12.1-8.9,11.9-3.8c-0.1,1.6-3.2,4.7-2.1,6.3c1,1.5,3.9-0.4,4.7,2
	c1.6,4.5,5.3,4.1,4.5,6.3c-4.3,10.6-17.4,9.1-20.6,5.1c-0.2-0.2-0.6-0.3-0.9-0.1c-5,3.4,16.8,8.4-0.1,12.8c-1.2,0.3-2.2-0.7-2.1-1.9
	c0.4-3,4.9,1.7,4.5-1.6c-0.4-3.9-6-2.1-5.4,2.6c0.4,3.5,5.1,2,11.4,1.3c1.8-0.2,3.8-2.4,4.8-0.6c1.3,5,2.9,3.7-7.1,4.4
	c-1.2,0.1-1.2,2-0.5,2.4c1,0.5,2.9-1.5,15.4-2.5C158.4,684.4,158.5,685.9,159.6,685.3z M170.6,624.2c-0.1,5.3,7.8,4.6,6.8-1.8
	c-0.5-3.1-0.7,4.3-3.6,2.6C173.7,625,170.6,622.2,170.6,624.2z M204.6,646.5c-4.6-1.4-7.4,2.1-6.7,3.6c2.5,5.5,0,6.3,1.8,11.9
	c0.6,2,3.1-2.3,10.3,0.7C211.9,656.2,209.3,648,204.6,646.5z M193.6,655.4c1.5-1.6,0.4-4.5-1.4-3.6
	C189.7,653.2,191.5,657.8,193.6,655.4z M581.9,653.8c-1.2-1.1-1.6-1.8-2.6-1c-3.6,2.7-3.9,7.7-2.2,7.9c6.5,0.5,5.7,9.9,8.5-4.5
	C586,654.3,583.1,654.9,581.9,653.8z M136.4,660.3c0.1-9.7,3.8-6.1-1.2-6.7c-2.1-0.2-0.8,5-4.5,3.6c-3.4-2.9-2.2-6.1-5.3-5.7
	c-4.4,0.5-7.6-0.2-9.1-5.9c-0.5-1.8-3.2,0.4-5.4-3.6c-0.3-0.4-0.2-1.2,0.3-1.6c1.8-1.4,3.4,1.7,4.8,1.4c1.7-0.3,1.1-4.1,7.2-9.3
	c0.5-0.4,0.7-1.2,0.5-1.9c-0.8-2.2-3.4-0.2-4.5-1.8c-2.2-3.4-7.2-9.3-5.9-5.1c1.2,3.9,7,8.3-0.2,12.1c-13.1,6.9-20.4-3.1-21.5-2.8
	c-1.3,0.4-1.5,6.3,1.4,6.4c2.9,0.1,5,2.3,10.2,2.6c2.5,0.2,5.3,3.4,1.9,2.8c-5.4-0.9-11.6,2.6-9.6,7.6c8.2,4.7,17.4-5.2,15,4.2
	c4.7,2.7,9.2-0.5,10.8,0.8c3.7,3,6.7-2,6.2,0.8c-1.2,7-7.5,0.7-7.4,4c0.1,2,0.9,1.9,1.3,1.9c9.3,0.8,8.9-6.7,12.3-5.9
	C135,658.5,136.4,662.2,136.4,660.3z M465.9,664.8c0.7-1.3-1.8-4.9-3.5-4.4c-1.6,0.5-2.7,6.1-2.1,7.2
	C461.5,669.8,464.6,667.2,465.9,664.8z M267.3,668c0.6-1.3,3.3-2.5,0.3-3c-5.5,2.5-8.5,5.3-9.1,8.4
	C265.6,674.3,265.4,672.1,267.3,668z M193.9,677.5c3.4,0.5,5.5-0.9,6.4-4.3C194.4,663.9,190.1,676.9,193.9,677.5z M585.2,671.5
	c-1.2,1.8,2,4.8,4.4,4.4C594,675.1,587.4,668.3,585.2,671.5z M491.8,677.9c1.5-2-1.2-3.3-4.2-5.5c-2.5-1.9-7,4.9-3.6,7.5
	C486.4,681.7,488,683,491.8,677.9z M314.6,704.4c-1.8-1-2.3-3.6-0.7-4.2c0.6-0.2,0.9-0.7,0.7-1.5c-1.1-6.1-3.7-7-8.2-9.8
	c-4.5-2.8-1.3-4.4,4-4.8c2.2-0.2,3.9-4.2,3.8-7c-0.1-2.5-6.1-5.7-10,0.2c0.1,1.2,1.5,0.7,1.9,0.2c2.8-3.6,6.6,2.9-3.4,3.3
	c-2.9,0.1-0.7,8.6-7.5-0.7c-4.4,0-7.4,2.7-6.7,4.4c1,2.4-0.4,4.6-2.8,5c-3,0.5-3,2.7-4.6,3.5c-2.5,1.3-1.1,4.4,0.5,6.5
	c5.7,2.5,2.2,4.8,7.9,11c2.4,2.6,5.9,2.9,8.6,5.2c3.7,3.1,16.4-3.2,15.2-6.4c-0.7-1.7-2.5,1.4-5.8,0.7c-4.8-1,2.6-6.3,4.8-4.1
	c0.7-0.1,3,0,2.4-1.1C314.8,704.6,314.7,704.5,314.6,704.4z M550.7,702.2c-7.4-0.9-8.7-1.4-8.4,0.2c3.3,1.3,7.7,1.5,11.6,3.3
	c9,4.1,12.6-3.8,16.7-9c1.8-2.3-3-7.1-2.9-10.2c0.1-1.7,0.3-2.4-0.8-2.7c-4.9-1.2-5.2-4.1-7.1-4.5c-2.9-0.7-3.9,1.1-4.5-0.4
	c-1.4-3.2-0.9-3.1-1.4,0.3c-0.3,2-0.8-0.8-2.6-0.5c-2.3,0.3-10.3,9.9-7.7,11.7c1.3,0.8,1.5-1,3.7-2.4c4.8-2.9,6-6.7,7.2-3.9
	c0.6,1.5,0,1.7-4.7,6.3c-1,1-2.3-0.8-3.5,0.9c-0.7,0.9,0.3,1.6,1.3,1.8c1.1,0.3,0.8,0.9,0.9,5.3C553.9,700.2,552,702.4,550.7,702.2z
	 M392.9,678.5c-0.2-0.3-0.5,0.5-1.9-0.9c-0.7-0.7-1.7,0.1-1.2,1.2c1.1,2.2,5.8,7.9,5.4,5.5C394.8,682,394.1,680.1,392.9,678.5z
	 M266.7,682.1c-2.3-0.3-4.6-1.7-6.9-4.5c-8.6,0.1-10.1,9.6-6.4,10.2C266.2,689.9,255,687.8,266.7,682.1z M157.3,687
	c-2.8,0.7-3.6,0.4-3.9,1.1c-0.3,0.5-0.2,1.2,0.6,1.2C156.6,689.1,158.3,686.7,157.3,687z M320.3,695.9c2.9-1.2,3.1-4.7,0.3-5.6
	c-2.8-0.9-5.7,1.8-4.7,4.2C316.6,696.1,318.5,696.7,320.3,695.9z M156.9,694.1c-0.4,1.2,1.6,1.3,2.7-1.7
	C160.8,689.5,157.6,692.4,156.9,694.1z M268.8,700c-5.3-1.4-2.2-5.7-4.1-6.3c-2.4-0.9-5.6,1-7.5,2.8c-1.5,1.4,2.1,10.8,5.2,14.2
	c2.5-1.8,8.9-5.2,7.9-9.1C270.2,700.9,269.6,700.2,268.8,700z M455.3,710.9c0.9,0.1,0.2-7,1-7.2c3-0.7,4.3-0.6,3.8-2.1
	c-0.2-0.7-6.7,1.9-6.7,2.1C452.7,712,452.1,710.7,455.3,710.9z M335.9,713.8c-1.9-4.7-5.7-6.9-11.2-6.7c-1.9-0.4-5.3-0.7-6.2,1.1
	c-3.1,6.9-3.2,6.7-2.8,7.3c0.3,0.5,0.9,0.8,1.3,0.2c3.1-4.5,4.7-5.4,4.9-2.5c-11,11.3-5.5,14.2-3.2,7.9c1-2.6,14.1-1,16.9-0.5
	c1.2,0.2,1-1.3,0.4-2.1C335.4,717.6,335.6,717.1,335.9,713.8z M602.1,751.2c0.1,0.7,0.9,0.8,1.3,0.5c4.8-4.1-0.2-6.2-0.2-8.1
	c0-3.3-0.4-7.1-3.8-8.8c-2.7-1.3-5-2-6.9-2c-2.9,0,3.2-5.5-4.5-7.4c-2.1-0.5-3.2,0.5-5.3,0.9c-2.4,0.5-5.8-4.8-8.3-2
	c-1,1.1-2,0.4-3.8,1.6c-1.9,1.3-0.6,3.2,0.6,2.9c5.1-1.3,5.2,2.4,3.9,2.5c-4.3,3.4-6.6,4-7,1.9c-1.2-8.1-1.9-5.6,3.2-11.6
	c-1.3-5.8-8.2-2.6-12.2-0.5c-1.7,0.8-4.3-0.5-6.3,3c-0.6,1-2,0.7-2.5-0.3c-0.5-1.3,1.1-2.9-0.6-4.6c-0.4-0.4-0.8-0.4-1.3-0.1
	c-10.3,8.5-3.7-0.9-7.3-9.5l-2.8-0.9c-1.4,0.2,0.7,3.5-1,3.9c-6,1.3-0.8,4-2.3,5.6c-1.3,1.4-9.1-4.5-6.7,0.2
	c2.1,4.2,5.1,1.4,5.8,3.2c0.3,0.9-0.8,1.1-2.8,2.7c-1.2,1,1.2,1.8,2.6,1.5c1.7-0.3,2.5,1.9,4.8-0.2c1-1,2.7-0.9,3.7,0.1
	c2.2,2.3,0.1,5.6,0.2,6.8c0.1,4.2-1,5.2-0.7,6.9c0.4,2.4-0.8,5.6-2.9,5.6c-7.5,0-7.7,0.2-8.4-0.6c-4.1-4.3-7.3-10.5-13.7-4.1
	c-1.9,4.5-0.3,11.6,3.9,8.9c2.9-1.8,4.7,1.2,5.9-0.1c4-4.3-2.2-3.3,15.9-3.6c1.9,0,3.4,6.1,3.8,7.8c1.6,6.8,11.9,13.8,13.5,14.1
	c2.9,0.7,3.2-2.8,3.9-5.5c0.4-1.4,2.6-2.2,3.1-1c0.2,0.5-0.8,3.5,1.3,6.8c8.7,1.8,7.7,1.1,7.7,3.6c0,1.1,1.4,0.2,1.5,1.3
	c14,0.9,12.9,1.3,17-1.3c1.4-0.9-1.9-3.2,1.7-4.7c1.4-0.6,2.4,0.8,1.8,1.9c-1,1.7-2.5,1.9-2.7,2.4c-0.5,1.2,3.5,0.8,5.6-1.8
	c1.2-1.4-0.2-2.3,0.6-5.4c0.5-1.9,5.8-3.3,3.3-9.5c-2.1-5.1-1.8,7-4.9,3.8c-0.7-0.7-2.1-0.8-1.1-1.6c0.7-0.5,0.8-1.5,0.3-2.3
	c-5-7.4-0.9-7.4-0.7-8.9c0.1-0.7-2-1.4-2.6-3.6c-0.2-0.9-0.9-1-2.5-1.9c-1.5-0.8,0.2-1.5-0.4-4.3c-0.1-0.3,0.4-0.6,0.6-0.4
	c3.5,3,1.8,5.7,3.5,5.6C604.1,740.2,601.3,747.1,602.1,751.2z M440.8,712.1c-3.9,0.2-1.9,4.4,1.4,2.7
	C443.9,713.9,443,712,440.8,712.1z M191.4,717c-4.6-1.7-12-1.8-11.8,3.2c0.2,5.4-3.2,7.7-2,8.8c0.8,0.8,4.7-1.4,4.8,1.7
	c0,2.3-3,2-2.7,3.6c0.2,1.2,1.4,2,2.6,1.4c3.3-1.4,2.3,3.4,5.4,2.1c12.3-4.9,5.7-14.5,5.7-16.7C193.3,719.8,192.8,717.5,191.4,717z
	 M269.2,720.2c-3.1-0.6-7,3.4-4.5,2.4C264.8,722.5,272.5,720.8,269.2,720.2z M486.1,738.8c-1.7,2.7-0.5,3.8-1.7,4.9
	c-1.1,1-2.2,1.1-3.4,0.1c-6.6,2-1.8-4.7-5.8-4.5c-5.6,0.3-7.3-3.7-4.2-3c6.7,1.6,8.9,0.5,6.9-3.1c-1.4-0.9-2-1.2-2.2-3.1
	c-0.3-2.7-2.4-4-3.8-3.6c-6.9,2-4.8,11.2-6.7,11.6c-4.3,0.7,3.3,12.5,10.7,10.3c3.3-1,6-1.1,8.4-3.7
	C487.1,741.5,487.2,737,486.1,738.8z M503.4,772.4c-2.5,0.1-5.2,1.9-5.6,4.4c-0.7,4.2,4.9,6,8.5,2.9
	C502.7,778.1,501.7,775.6,503.4,772.4z M463.7,783.5c-16.4,5-12.2,20.6-5.2,24.3c2.5,1.4,5.9,3.8,8.9,2.7c3.6-1.3-11.3-3.6-5.3-6.5
	c3.8-1.8,1-8.1,6-3.3c1.2,1.2-1.4,1.8-0.6,5.5c0.4,1.7,2.9-0.7,3.9-4.1c-1.9-7.1,1.5-9.9,2.8-7.6c2.3,3.8,4.3-1.6,1.8-4.7
	C472.7,785.7,468.6,783.6,463.7,783.5z"/>
</svg>
